<?xml version="1.0"?><svg width="793.7007874015749" height="1122.5196850393702" xmlns="http://www.w3.org/2000/svg">
 <title>thick blue wire globe</title>
 <g>
  <title>Layer 1</title>
  <g id="g1006">
   <path fill="none" fill-rule="evenodd" stroke="#000000" stroke-width="5" stroke-miterlimit="4" id="path908" d="m785.981018,627.542603a387.302856,397.465302 0 1 0 -774.605708,0a387.302856,397.465302 0 1 0 774.605708,0z"/>
   <path fill="none" fill-opacity="0.75" fill-rule="evenodd" stroke="#000000" stroke-width="5" stroke-miterlimit="4" id="path4042" d="m381.740784,232.335495c0,0 -109.951263,45.976913 -112.209534,398.275711c-2.258362,352.298767 123.501068,394.396729 123.501068,394.396729"/>
   <path fill="none" fill-opacity="0.75" fill-rule="evenodd" stroke="#000000" stroke-width="5" stroke-miterlimit="4" id="path7092" d="m381.740784,232.335495c0,0 338.74884,45.166519 336.490479,397.465347c-2.258301,352.298889 -325.198944,395.207092 -325.198944,395.207092"/>
   <path fill="none" fill-opacity="0.75" fill-rule="evenodd" stroke="#000000" stroke-width="5" stroke-miterlimit="4" id="path7093" d="m381.740784,232.335495c0,0 121.208344,47.459457 118.949982,399.758255c-2.258362,352.298828 -107.658447,392.914185 -107.658447,392.914185"/>
   <path fill="none" fill-opacity="0.75" fill-rule="evenodd" stroke="#000000" stroke-width="5" stroke-miterlimit="4" id="path7094" d="m381.740784,232.335495c0,0 -307.839172,40.684464 -310.097473,392.983292c-2.258324,352.298889 321.389008,399.689148 321.389008,399.689148"/>
   <path fill="none" fill-opacity="0.75" fill-rule="evenodd" stroke="#000000" stroke-width="5" stroke-miterlimit="4" id="path7095" d="m381.740784,232.335495c0,0 225.83252,40.649918 223.574097,392.948624c-2.25824,352.298889 -212.282562,399.723816 -212.282562,399.723816"/>
   <path fill="none" fill-opacity="0.75" fill-rule="evenodd" stroke="#000000" stroke-width="5" stroke-miterlimit="4" id="path7096" d="m381.740784,232.335495c0,0 -227.720245,42.235977 -229.978607,394.534805c-2.258362,352.298828 241.270142,398.137634 241.270142,398.137634"/>
   <path fill="none" fill-opacity="0.75" fill-rule="evenodd" stroke="#000000" stroke-width="5" stroke-miterlimit="4" id="path7097" d="m381.740784,232.335495c0,0 6.774963,33.874954 4.516602,386.17366c-2.25824,352.298889 6.774933,406.498779 6.774933,406.498779"/>
   <path fill="none" fill-opacity="0.75" fill-rule="evenodd" stroke="#000000" stroke-width="5" stroke-miterlimit="4" id="path7107" d="m241.982864,263.952087c0,0 9.420456,51.941467 146.01619,51.941467c136.595795,0 176.632416,-47.424744 176.632416,-47.424744"/>
   <path fill="none" fill-opacity="0.75" fill-rule="evenodd" stroke="#000000" stroke-width="5" stroke-miterlimit="4" id="path7108" d="m116.884689,356.543427c0,0 6.434708,79.041443 265.111343,79.041443c258.676331,0 307.508911,-74.524841 302.99231,-72.266449"/>
   <path fill="none" fill-opacity="0.75" fill-rule="evenodd" stroke="#000000" stroke-width="5" stroke-miterlimit="4" id="path7109" d="m51.895241,449.134796c0,0 29.876831,101.624664 332.107994,101.624664c302.231018,0 363.716248,-92.591431 363.716248,-92.591431"/>
   <path fill="none" fill-opacity="0.75" fill-rule="evenodd" stroke="#000000" stroke-width="5" stroke-miterlimit="4" id="path7110" d="m16.009199,573.342651c0,0 49.445604,83.558044 373.457445,83.558044c324.011383,0 391.880524,-79.041382 391.880524,-79.041382"/>
   <path fill="none" fill-opacity="0.75" fill-rule="evenodd" stroke="#000000" stroke-width="5" stroke-miterlimit="4" id="path7111" d="m16.01255,665.934143c0,0 47.43153,94.849548 372.612877,94.849548c325.181213,0 395.487915,-90.333008 395.487915,-90.333008"/>
   <path fill="none" fill-opacity="0.75" fill-rule="evenodd" stroke="#000000" stroke-width="5" stroke-miterlimit="4" id="path7112" d="m38.36776,765.300415c0,0 46.069489,88.074707 351.356941,88.074707c305.287323,0 369.753021,-83.558044 369.753021,-83.558044"/>
   <path fill="none" fill-opacity="0.75" fill-rule="evenodd" stroke="#000000" stroke-width="5" stroke-miterlimit="4" id="path7113" d="m87.568619,862.408447c0,0 38.425964,76.78302 300.89119,76.78302c262.465057,0 319.06955,-72.266418 319.06955,-72.266418"/>
  </g>
 </g>
</svg>