<svg id="Layer_1" data-name="Layer 1" xmlns="http://www.w3.org/2000/svg" viewBox="0 0 177.5 165.17"><defs><style>.cls-1{fill:none;}.cls-1,.cls-2,.cls-3{stroke:#000;}.cls-2{fill:#fff;}</style></defs><title>mimeograph</title><polygon class="cls-1" points="92.88 11.07 153.54 55.14 130.37 126.46 55.39 126.46 32.22 55.14 92.88 11.07"/><polygon class="cls-2" points="81.45 33.21 142.12 77.28 118.94 148.6 43.96 148.6 20.79 77.28 81.45 33.21"/><path class="cls-2" d="M20.79,77.28L32.22,55.14Z"/><path class="cls-2" d="M92.88,11.07L81.45,33.21Z"/><line class="cls-1" x1="118.95" y1="148.6" x2="130.37" y2="126.46"/><polyline class="cls-2" points="20.79 77.28 81.45 33.21 92.88 11.07 32.22 55.14"/><line class="cls-1" x1="32.22" y1="55.14" x2="20.79" y2="77.28"/><line class="cls-1" x1="118.95" y1="148.6" x2="130.37" y2="126.46"/><polyline class="cls-2" points="130.37 126.46 153.54 55.14 142.12 77.28 118.94 148.6"/><line class="cls-1" x1="130.37" y1="126.46" x2="118.95" y2="148.6"/><polygon class="cls-2" points="81.45 57.57 118.94 84.81 104.62 128.89 58.28 128.89 43.96 84.81 81.45 57.57"/><path class="cls-2" d="M108.95,82.49A31.36,31.36,0,1,0,112.5,97,31.37,31.37,0,0,0,108.95,82.49Z"/><circle class="cls-3" cx="80.88" cy="47.27" r="6.88"/></svg>